<?xml version="1.0" encoding="utf-8"?>
<!-- Generator: Adobe Illustrator 24.1.1, SVG Export Plug-In . SVG Version: 6.00 Build 0)  -->
<svg version="1.1" id="Layer_1" xmlns="http://www.w3.org/2000/svg" xmlns:xlink="http://www.w3.org/1999/xlink" x="0px" y="0px"
	 viewBox="0 0 512 512" style="enable-background:new 0 0 512 512;" xml:space="preserve">
<g>
	<path d="M245.4,260.6c-2.6,5.6-5.3,11.8-8.3,18.3c-10.3,23.2-21.6,51.6-25.8,69.8c-1.7,7.7-2.5,15.6-2.4,23.4
		c0,3.5,0.3,7.2,0.5,10.9c14.5,5.3,30.3,8.3,46.7,8.3c14.5,0,28.9-2.4,42.7-6.9c-3.2-2.9-6.3-6.1-8.9-9.4
		C271.6,351.7,261.5,317.8,245.4,260.6z M178.2,145.3c-36.1,25.3-57.5,66.6-57.6,110.7c0.1,43.3,20.9,84.1,56,109.5
		c8.3-34.6,29.2-66.3,60.4-129.7c-1.9-5.1-4-10.7-6.3-16.6c-8.7-21.6-21.2-46.8-32.3-58.2C192.5,154.8,185.7,149.6,178.2,145.3z
		 M373.9,411.2c-17.9-2.2-32.7-4.9-45.6-9.5c-50.4,24.9-110.2,22.1-158-7.6c-47.8-29.7-76.9-81.9-76.9-138.2
		c0-46.8,20.2-91.4,55.5-122.2c-9.3-2.2-18.7-3.4-28.3-3.4c-47.7,0.4-98.1,26.8-119.1,98.2c-1.9,10.3-1.4,18.2-1.4,27.5
		c0,141.4,114.6,256,256,256c86.6,0,163-43,209.3-108.8c-25,6.2-49.2,9.3-69.7,9.3C387.9,412.5,380.7,412.1,373.9,411.2L373.9,411.2
		z M325.8,361.7c1.6,0.8,5.2,2.1,10.1,3.4c34.8-25.4,55.4-65.9,55.5-109.1c-0.2-74.7-60.7-135.2-135.4-135.3
		c-14.4,0-28.8,2.4-42.5,6.9c27.5,31.2,40.7,76.1,53.5,125v0.1c0.1,0.1,4.2,13.6,11.1,31.6c6.9,17.9,16.8,40.3,27.6,56.4
		C312.8,351.5,320.5,359.3,325.8,361.7L325.8,361.7z M256,0C173.5-0.1,96,39.7,48,106.9c24.2-15.1,48.8-20.6,70.4-20.4
		c29.7,0.1,53.1,9.3,64.3,15.7c2.7,1.5,5.3,3.2,7.9,4.9c50.2-22.1,108.3-17.3,154.3,12.7s73.7,81.3,73.7,136.2
		c0,43.5-17.4,85.2-48.4,115.8c7.3,0.8,15.2,1.3,23.2,1.2c28.4,0,59-6.3,81.9-25.5c15-12.7,27.6-31.2,34.5-58.8
		c1.4-10.7,2.2-21.6,2.2-32.7C512,114.6,397.4,0,256,0L256,0z"/>
</g>
</svg>
